<svg class="WeatherIcon__svg" xmlns="http://www.w3.org/2000/svg" viewBox="0 0 100 100">
    <!-- Sun -->
    <g class="WeatherIcon__sun Sun">
        <g class="Sun__rays">
            <line class="WeatherIcon__path Sun__ray Sun__ray--1" x1="50" y1="28" x2="50" y2="32"/>
            <line class="WeatherIcon__path Sun__ray Sun__ray--2" x1="65.6" y1="34.4" x2="62.7" y2="37.3"/>
            <line class="WeatherIcon__path Sun__ray Sun__ray--3" x1="72" y1="50" x2="68" y2="50"/>
            <line class="WeatherIcon__path Sun__ray Sun__ray--4" x1="65.6" y1="65.6" x2="62.7" y2="62.7"/>
            <line class="WeatherIcon__path Sun__ray Sun__ray--5" x1="50" y1="68" x2="50" y2="72"/>
            <line class="WeatherIcon__path Sun__ray Sun__ray--6" x1="37.3" y1="62.7" x2="34.4" y2="65.6"/>
            <line class="WeatherIcon__path Sun__ray Sun__ray--7" x1="32" y1="50" x2="28" y2="50"/>
            <line class="WeatherIcon__path Sun__ray Sun__ray--8" x1="37.3" y1="37.3" x2="34.4" y2="34.4"/>
        </g>
        <circle class="WeatherIcon__path Sun__circle" cx="50" cy="50" r="10"/>
    </g>
    <g class="Cloud">
    <!-- Cloud Full -->
        <path class="WeatherIcon__path Cloud__path Cloud__path--full" d="M43.7,63.5c-7.5,0-13.5-6-13.5-13.5c0-7.5,6-13.5,13.5-13.5c5.5,0,10.3,3.3,12.4,8.1c1.2-0.5,2.5-0.8,3.9-0.8 c5.4,0,9.8,4.4,9.8,9.8s-4.4,9.8-9.8,9.8H43.7z"/>
        <!-- Cloud -->
        <path class="WeatherIcon__path Cloud__path Cloud__path--partial" d="M38.9,62.6c-0.7-0.3-1.5-0.6-2.1-1.1c-3.9-2.4-6.5-6.7-6.5-11.5c0-7.5,6-13.5,13.5-13.5c5.5,0,10.3,3.3,12.4,8.1 c1.2-0.5,2.5-0.8,3.9-0.8c5.4,0,9.8,4.4,9.8,9.8c0,3.5-1.8,6.5-4.5,8.3c-0.7,0.5-1.5,0.8-2.3,1.1"/>
    </g>
    <g class="WeatherIcon__rain Rain">
        <line class="WeatherIcon__path Rain__drop" x1="47" y1="58" x2="47" y2="62"/>
        <line class="WeatherIcon__path Rain__drop" x1="53" y1="58" x2="53" y2="62"/>
        <line class="WeatherIcon__path Rain__drop" x1="59" y1="58" x2="59" y2="62"/>
    </g>
    <g class="WeatherIcon__drizzle Drizzle">
        <line class="WeatherIcon__path Drizzle__drop" x1="45" y1="58" x2="45" y2="59"/>
        <line class="WeatherIcon__path Drizzle__drop" x1="51" y1="58" x2="51" y2="59"/>
        <line class="WeatherIcon__path Drizzle__drop" x1="57" y1="58" x2="57" y2="59"/>
    </g>
    <g class="WeatherIcon__hail Hail">
        <circle class="WeatherIcon__path Hail__drop" cx="46" cy="63" r="1"/>
        <circle class="WeatherIcon__path Hail__drop" cx="51" cy="63" r="1"/>
        <circle class="WeatherIcon__path Hail__drop" cx="56" cy="63" r="1"/>
        <circle class="WeatherIcon__path Hail__drop" cx="46" cy="63" r="1"/>
        <circle class="WeatherIcon__path Hail__drop" cx="51" cy="63" r="1"/>
        <circle class="WeatherIcon__path Hail__drop" cx="56" cy="63" r="1"/>
    </g>
    <g class="WeatherIcon__snow Snow">
        <circle class="WeatherIcon__path Snow__drop" cx="46" cy="63" r="1"/>
        <circle class="WeatherIcon__path Snow__drop" cx="51" cy="63" r="1"/>
        <circle class="WeatherIcon__path Snow__drop" cx="56" cy="63" r="1"/>
        <circle class="WeatherIcon__path Snow__drop" cx="46" cy="63" r="1"/>
        <circle class="WeatherIcon__path Snow__drop" cx="51" cy="63" r="1"/>
        <circle class="WeatherIcon__path Snow__drop" cx="56" cy="63" r="1"/>
    </g>
    <path class="WeatherIcon__path WeatherIcon__lightning" d="M48.9,58.6h6.9l-4.2,6.9h4.8l-9,11.1l2.5-8.3h-4.6L48.9,58.6z"/>
    <g class="WeatherIcon__fog Fog">
        <path class="WeatherIcon__path Fog__bar" d="M60,41.6c-0.7,0-1.4,0.1-2,0.2c0-0.1-0.1-0.1-0.1-0.2H30.2c-0.4,0.6-0.7,1.3-1,2h37.4C64.7,42.4,62.5,41.6,60,41.6z"/>
        <path class="WeatherIcon__path Fog__bar" d="M68.9,45.6H28.5c-0.2,0.7-0.3,1.3-0.4,2h42.2C70,46.9,69.5,46.3,68.9,45.6z"/>
        <path class="WeatherIcon__path Fog__bar" d="M54.6,37.6H33.4c-0.7,0.6-1.3,1.3-1.9,2h24.9C55.9,38.9,55.3,38.3,54.6,37.6z"/>
        <path class="WeatherIcon__path Fog__bar" d="M44,33.6c-2.8,0-5.4,0.7-7.7,2h15.5C49.4,34.4,46.8,33.6,44,33.6z"/>
        <path class="WeatherIcon__path Fog__bar" d="M28.5,53.6c0.2,0.7,0.4,1.4,0.6,2h42.6c0.1-0.7,0.2-1.3,0.2-2H28.5z"/>
        <path class="WeatherIcon__path Fog__bar" d="M31.5,59.6h38.9c0.4-0.6,0.7-1.3,0.9-2H30.2C30.6,58.3,31,59,31.5,59.6z"/>
        <path class="WeatherIcon__path Fog__bar" d="M71.3,49.6H28c0,0.7,0.1,1.3,0.1,2h43.7C71.7,51,71.5,50.3,71.3,49.6z"/>
        <path class="WeatherIcon__path Fog__bar" d="M36.3,63.6h30.4c0.9-0.6,1.6-1.2,2.3-2H33.4C34.3,62.4,35.2,63.1,36.3,63.6z"/>
    </g>
</svg>
