<svg class="WeatherIcon__svg" xmlns="http://www.w3.org/2000/svg" viewBox="0 0 100 100">
    <!-- Sun -->
    <g class="WeatherIcon__sun Sun">
        <g class="Sun__rays">
            <line class="WeatherIcon__path Sun__ray Sun__ray--1" x1="50" y1="12.3" x2="50" y2="18.9"/>
            <line class="WeatherIcon__path Sun__ray Sun__ray--2" x1="75.7" y1="22.8" x2="70.9" y2="27.6"/>
            <line class="WeatherIcon__path Sun__ray Sun__ray--3" x1="86.2" y1="48.5" x2="79.6" y2="48.5"/>
            <line class="WeatherIcon__path Sun__ray Sun__ray--4" x1="75.7" y1="74.2" x2="70.9" y2="69.4"/>
            <line class="WeatherIcon__path Sun__ray Sun__ray--5" x1="50" y1="78.1" x2="50" y2="84.7"/>
            <line class="WeatherIcon__path Sun__ray Sun__ray--6" x1="29.1" y1="69.4" x2="24.3" y2="74.2"/>
            <line class="WeatherIcon__path Sun__ray Sun__ray--7" x1="20.4" y1="48.5" x2="13.8" y2="48.5"/>
            <line class="WeatherIcon__path Sun__ray Sun__ray--8" x1="29.1" y1="27.6" x2="24.3" y2="22.8"/>
        </g>
        <circle class="WeatherIcon__path Sun__circle" cx="50" cy="48.5" r="16.5"/>
        <path class="WeatherIcon__path Sun__night" d="M50,68.3c-10.9,0-19.7-8.9-19.7-19.8c0-10.9,8.9-19.7,19.8-19.7c1.2,0,2.4,0.1,3.6,0.3c-1.6,7.1,2.8,14.2,9.9,15.8,c2,0.5,4,0.5,5.9,0l0.3,3.6C69.8,59.4,60.9,68.3,50,68.3z M47,35.7c-7.1,1.6-11.5,8.7-9.9,15.8S45.9,63,53,61.3,c4.9-1.1,8.7-5,9.9-9.9C54.8,50,48.5,43.7,47,35.7z"/>
    </g>
    <g class="Cloud">
        <!-- Cloud Full -->
        <path class="WeatherIcon__path Cloud__path Cloud__path--full" d="M39.6,70.7c-12.3,0-22.2-9.9-22.2-22.2s9.9-22.2,22.2-22.2c9.1,0,17,5.4,20.4,13.3c2-0.8,4.1-1.3,6.4-1.3,c8.9,0,16.1,7.2,16.1,16.1s-7.2,16.1-16.1,16.1H39.6V70.7z"/>
        <!-- Cloud -->
        <path class="WeatherIcon__path Cloud__path Cloud__path--partial" d="M31.7,69.3c-1.2-0.5-2.5-1-3.5-1.8c-6.4-4-10.7-11-10.7-18.9c0-12.3,9.9-22.2,22.2-22.2c9.1,0,17,5.4,20.4,13.3,c2-0.8,4.1-1.3,6.4-1.3c8.9,0,16.1,7.2,16.1,16.1c0,5.8-3,10.7-7.4,13.7c-1.2,0.8-2.5,1.3-3.8,1.8"/>
    </g>
    <g class="WeatherIcon__rain Rain">
        <line class="WeatherIcon__path Rain__drop" x1="45.1" y1="61.7" x2="45.1" y2="68.3"/>
        <line class="WeatherIcon__path Rain__drop" x1="54.9" y1="61.7" x2="54.9" y2="68.3"/>
        <line class="WeatherIcon__path Rain__drop" x1="64.8" y1="61.7" x2="64.8" y2="68.3"/>
    </g>
    <g class="WeatherIcon__drizzle Drizzle">
        <line class="WeatherIcon__path Drizzle__drop" x1="41.8" y1="61.7" x2="41.8" y2="63.3"/>
        <line class="WeatherIcon__path Drizzle__drop" x1="51.6" y1="61.7" x2="51.6" y2="63.3"/>
        <line class="WeatherIcon__path Drizzle__drop" x1="61.5" y1="61.7" x2="61.5" y2="63.3"/>
    </g>
    <g class="WeatherIcon__hail Hail">
        <circle class="WeatherIcon__path Hail__drop" cx="43.4" cy="69.9" r="1.6"/>
        <circle class="WeatherIcon__path Hail__drop" cx="51.6" cy="69.9" r="1.6"/>
        <circle class="WeatherIcon__path Hail__drop" cx="59.9" cy="69.9" r="1.6"/>
        <circle class="WeatherIcon__path Hail__drop" cx="43.4" cy="69.9" r="1.6"/>
        <circle class="WeatherIcon__path Hail__drop" cx="51.6" cy="69.9" r="1.6"/>
        <circle class="WeatherIcon__path Hail__drop" cx="59.9" cy="69.9" r="1.6"/>
    </g>
    <g class="WeatherIcon__snow Snow">
        <circle class="WeatherIcon__path Snow__drop" cx="43.4" cy="69.9" r="1.6"/>
        <circle class="WeatherIcon__path Snow__drop" cx="51.6" cy="69.9" r="1.6"/>
        <circle class="WeatherIcon__path Snow__drop" cx="59.9" cy="69.9" r="1.6"/>
        <circle class="WeatherIcon__path Snow__drop" cx="43.4" cy="69.9" r="1.6"/>
        <circle class="WeatherIcon__path Snow__drop" cx="51.6" cy="69.9" r="1.6"/>
        <circle class="WeatherIcon__path Snow__drop" cx="59.9" cy="69.9" r="1.6"/>
    </g>
    <g class="WeatherIcon__lightning Lightning">
        <path class="WeatherIcon__path Lightning__path" d="M48.2,62.7h11.4L52.6,74h7.9L45.7,92.3l4.1-13.7h-7.6L48.2,62.7z"/>
    </g>
    <g class="WeatherIcon__fog Fog">
        <path class="WeatherIcon__path Fog__bar" d="M66.5,34.7c-1.2,0-2.3,0.2-3.3,0.3c0-0.2-0.2-0.2-0.2-0.3H17.4c-0.7,1-1.2,2.1-1.6,3.3h61.6C74.2,36,70.6,34.7,66.5,34.7z"/>
        <path class="WeatherIcon__path Fog__bar" d="M81.1,41.3H14.6c-0.3,1.2-0.5,2.1-0.7,3.3h69.5C82.9,43.4,82.1,42.4,81.1,41.3z"/>
        <path class="WeatherIcon__path Fog__bar" d="M57.6,28.1H22.7c-1.2,1-2.1,2.1-3.1,3.3h41C59.7,30.2,58.7,29.3,57.6,28.1z"/>
        <path class="WeatherIcon__path Fog__bar" d="M40.1,21.5c-4.6,0-8.9,1.2-12.7,3.3H53C49,22.8,44.7,21.5,40.1,21.5z"/>
        <path class="WeatherIcon__path Fog__bar" d="M14.6,54.4c0.3,1.2,0.7,2.3,1,3.3h70.1c0.2-1.2,0.3-2.1,0.3-3.3H14.6z"/>
        <path class="WeatherIcon__path Fog__bar" d="M19.5,64.3h64c0.7-1,1.2-2.1,1.5-3.3H17.4C18.1,62.2,18.7,63.3,19.5,64.3z"/>
        <path class="WeatherIcon__path Fog__bar" d="M85.1,47.9H13.8c0,1.2,0.2,2.1,0.2,3.3h71.9C85.7,50.2,85.4,49,85.1,47.9z"/>
        <path class="WeatherIcon__path Fog__bar" d="M27.4,70.9h50c1.5-1,2.6-2,3.8-3.3H22.7C24.2,68.9,25.6,70.1,27.4,70.9z"/>
    </g>
</svg>
