<svg class="WeatherIcon__svg" xmlns="http://www.w3.org/2000/svg" viewBox="0 0 100 100">
    <!-- Sun -->
    <g class="WeatherIcon__sun Sun">
        <g class="Sun__rays">
            <line class="WeatherIcon__path Sun__ray Sun__ray--1" x1="50" y1="28" x2="50" y2="32"/>
            <line class="WeatherIcon__path Sun__ray Sun__ray--2" x1="65.6" y1="34.4" x2="62.7" y2="37.3"/>
            <line class="WeatherIcon__path Sun__ray Sun__ray--3" x1="72" y1="50" x2="68" y2="50"/>
            <line class="WeatherIcon__path Sun__ray Sun__ray--4" x1="65.6" y1="65.6" x2="62.7" y2="62.7"/>
            <line class="WeatherIcon__path Sun__ray Sun__ray--5" x1="50" y1="68" x2="50" y2="72"/>
            <line class="WeatherIcon__path Sun__ray Sun__ray--6" x1="37.3" y1="62.7" x2="34.4" y2="65.6"/>
            <line class="WeatherIcon__path Sun__ray Sun__ray--7" x1="32" y1="50" x2="28" y2="50"/>
            <line class="WeatherIcon__path Sun__ray Sun__ray--8" x1="37.3" y1="37.3" x2="34.4" y2="34.4"/>
        </g>
        <circle class="Sun__circle WeatherIcon__path " cx="50" cy="50" r="10"/>
    </g>
    <!-- Cloud Full -->
    <path class="WeatherIcon__path WeatherIcon__cloud-full-path" d="M43.7,63.5c-7.5,0-13.5-6-13.5-13.5c0-7.5,6-13.5,13.5-13.5c5.5,0,10.3,3.3,12.4,8.1c1.2-0.5,2.5-0.8,3.9-0.8 c5.4,0,9.8,4.4,9.8,9.8s-4.4,9.8-9.8,9.8H43.7z"/>
    <!-- Cloud -->
    <path class="WeatherIcon__path WeatherIcon__cloud-path" d="M38.9,62.6c-0.7-0.3-1.5-0.6-2.1-1.1c-3.9-2.4-6.5-6.7-6.5-11.5c0-7.5,6-13.5,13.5-13.5c5.5,0,10.3,3.3,12.4,8.1 c1.2-0.5,2.5-0.8,3.9-0.8c5.4,0,9.8,4.4,9.8,9.8c0,3.5-1.8,6.5-4.5,8.3c-0.7,0.5-1.5,0.8-2.3,1.1"/>
    <g class="WeatherIcon__rain Rain">
        <line class="WeatherIcon__path Rain__drop" x1="47" y1="58" x2="47" y2="62"/>
        <line class="WeatherIcon__path Rain__drop" x1="53" y1="58" x2="53" y2="62"/>
        <line class="WeatherIcon__path Rain__drop" x1="59" y1="58" x2="59" y2="62"/>
    </g>
    <g class="WeatherIcon__drizzle Drizzle">
        <line class="WeatherIcon__path Drizzle__drop" x1="45" y1="58" x2="45" y2="59"/>
        <line class="WeatherIcon__path Drizzle__drop" x1="51" y1="58" x2="51" y2="59"/>
        <line class="WeatherIcon__path Drizzle__drop" x1="57" y1="58" x2="57" y2="59"/>
    </g>
    <g class="WeatherIcon__hail Hail">
        <circle class="WeatherIcon__path Hail__drop" cx="46" cy="63" r="1"/>
        <circle class="WeatherIcon__path Hail__drop" cx="51" cy="63" r="1"/>
        <circle class="WeatherIcon__path Hail__drop" cx="56" cy="63" r="1"/>
        <circle class="WeatherIcon__path Hail__drop" cx="46" cy="63" r="1"/>
        <circle class="WeatherIcon__path Hail__drop" cx="51" cy="63" r="1"/>
        <circle class="WeatherIcon__path Hail__drop" cx="56" cy="63" r="1"/>
    </g>
    <path class="WeatherIcon__path WeatherIcon__lightning" d="M48.9,58.6h6.9l-4.2,6.9h4.8l-9,11.1l2.5-8.3h-4.6L48.9,58.6z"/>
</svg>
